{"title":"The Legend of Hercules (2014) CAM x264 - Exclusive","uid":9496239,"size":2208301152,"categoryP":"video","categoryS":"movies","magnet":"?xt=urn:btih:f1b369c62e83860be06670b5a8de48bcf041d112&amp;dn=The+Legend+of+Hercules+%282014%29+CAM+x264+-+Exclusive&amp;tr=udp%3A%2F%2Ftracker.openbittorrent.com%3A80&amp;tr=udp%3A%2F%2Fopen.demonii.com%3A1337&amp;tr=udp%3A%2F%2Ftracker.coppersurfer.tk%3A6969&amp;tr=udp%3A%2F%2Fexodus.desync.com%3A6969","seeders":2,"leechers":5,"uploader":"tykoon123","files":-1,"time":1390119963,"description":" &lt;a href=&quot;http://www.imageurlhost.com/images/sm2n3dmbsaydvpswuanb.jpg&quot; rel=&quot;nofollow&quot; target=&quot;_NEW&quot;&gt;http://www.imageurlhost.com/images/sm2n3dmbsaydvpswuanb.jpg&lt;/a&gt; &lt;a href=&quot;\nhttp://www.imageurlhost.com/images/m9nybgj0kcwn7z4m2joe.jpg&quot; rel=&quot;nofollow&quot; target=&quot;_NEW&quot;&gt;\nhttp://www.imageurlhost.com/images/m9nybgj0kcwn7z4m2joe.jpg&lt;/a&gt;\n\nInfo:\n\nIMBD &lt;a href=&quot;\nhttp://www.imdb.com/title/tt1043726/&quot; rel=&quot;nofollow&quot; target=&quot;_NEW&quot;&gt;\nhttp://www.imdb.com/title/tt1043726/&lt;/a&gt;\n\nPlot\nThe origin story of the the mythical Greek hero. Betrayed by his stepfather, the King, and exiled and sold into \n\nslavery because of a forbidden love, Hercules must use his formidable powers to fight his way back to his rightful \n\nkingdom.\n\nGeneral\nFormat : AVI\nFormat/Info : Audio Video Interleave\nFormat profile : OpenDML\nFile size : 2.06 GiB\nDuration : 1h 29mn\nOverall bit rate : 3 286 Kbps\nWriting library : VirtualDub build 32842/release\n\n\n\nVideo\nID : 0\nFormat : AVC\nFormat/Info : Advanced Video Codec\nFormat profile : &lt;a class=&quot;__cf_email__&quot; href=&quot;/cdn-cgi/l/email-protection&quot; data-cfemail=&quot;c28aaba5aa828ef6ecf2&quot;&gt;[email&amp;#160;protected]&lt;/a&gt;&lt;script cf-hash='f9e31' type=&quot;text/javascript&quot;&gt;\n/* &lt;![CDATA[ */!function(){try{var t=&quot;currentScript&quot;in document?document.currentScript:function(){for(var t=document.getElementsByTagName(&quot;script&quot;),e=t.length;e--;)if(t[e].getAttribute(&quot;cf-hash&quot;))return t[e]}();if(t&amp;&amp;t.previousSibling){var e,r,n,i,c=t.previousSibling,a=c.getAttribute(&quot;data-cfemail&quot;);if(a){for(e=&quot;&quot;,r=parseInt(a.substr(0,2),16),n=2;a.length-n;n+=2)i=parseInt(a.substr(n,2),16)^r,e+=String.fromCharCode(i);e=document.createTextNode(e),c.parentNode.replaceChild(e,c)}}}catch(u){}}();/* ]]&gt; */&lt;/script&gt;\nFormat settings, CABAC : Yes\nFormat settings, ReFrames : 4 frames\nCodec ID : H264\nDuration : 1h 29mn\nBit rate : 1 750 Kbps\nWidth : 720 pixels\nHeight : 340 pixels\nDisplay aspect ratio : 2.118\nFrame rate : 17.982 fps\nOriginal frame rate : 17.983 fps\nColor space : YUV\nChroma subsampling : 4:2:0\nBit depth : 8 bits\nScan type : Progressive\nBits/(Pixel*Frame) : 0.398\nStream size : 1.09 GiB (53%)\nWriting library : x264 core 130 r2274bm c832fe9\n\nAudio\nID : 1\nFormat : PCM\nFormat settings, Endianness : Little\nFormat settings, Sign : Signed\nCodec ID : 1\nDuration : 1h 29mn\nBit rate mode : Constant\nBit rate : 1 536 Kbps\nChannel(s) : 2 channels\nSampling rate : 48.0 KHz\nBit depth : 16 bits\nStream size : 984 MiB (47%)\nAlignment : Aligned on interleaves\nInterleave, duration : 56 ms (1.00 video frame)\nInterleave, preload duration : 500 ms\nNotes\nOk its a cam but vid has issues.\ncolor,focus,light. Can't do anything about all three.\n\nWork.Done\nOk dont shoot me it a cam. \nDid the best i could wih the colors. an the light. \nHad to fix the perpestive an crop,resize.\nadded some sat an hue.\nYES IT HAS WATERMARKS GOING THRU IT NO BIGGIE FOR 1ST CAM. ONLY HAPPENDS ABOUT 3 TIME THAT I SAW.\nAN HAS LATIN HD SUBS, I THINK THATS WHAT THAT IS. LOL STILL ON BIGGIE. MOST GOT CROPPED OUT.\n\nDont complain just enjoy til better comes along.\n\nAudio\nNot sure if its true line but sound nice for 1st cam.\n\nSource: \nVideo: HERCULES.2014.TS.VOSE\nAudio: HERCULES.2014.TS.VOSE\n\n\nScreens: &lt;a href=&quot;\nhttp://www.imageurlhost.com/images/kalbctrckd13xy07x0go.png&quot; rel=&quot;nofollow&quot; target=&quot;_NEW&quot;&gt;\nhttp://www.imageurlhost.com/images/kalbctrckd13xy07x0go.png&lt;/a&gt; &lt;a href=&quot;\nhttp://www.imageurlhost.com/images/elx4rjuzfc5jy1vf9uo.png&quot; rel=&quot;nofollow&quot; target=&quot;_NEW&quot;&gt;\nhttp://www.imageurlhost.com/images/elx4rjuzfc5jy1vf9uo.png&lt;/a&gt; &lt;a href=&quot;\nhttp://www.imageurlhost.com/images/d8vwfyu9xg03og83slhy.png&quot; rel=&quot;nofollow&quot; target=&quot;_NEW&quot;&gt;\nhttp://www.imageurlhost.com/images/d8vwfyu9xg03og83slhy.png&lt;/a&gt; &lt;a href=&quot;\nhttp://www.imageurlhost.com/images/ei2wrznl29awyrfqf9o.png&quot; rel=&quot;nofollow&quot; target=&quot;_NEW&quot;&gt;\nhttp://www.imageurlhost.com/images/ei2wrznl29awyrfqf9o.png&lt;/a&gt; &lt;a href=&quot;\nhttp://www.imageurlhost.com/images/2pv1nq8l6jlbb8noj0d.png&quot; rel=&quot;nofollow&quot; target=&quot;_NEW&quot;&gt;\nhttp://www.imageurlhost.com/images/2pv1nq8l6jlbb8noj0d.png&lt;/a&gt; &lt;a href=&quot;\nhttp://www.imageurlhost.com/images/dpv6gjbugbn5y1dsnfwv.png&quot; rel=&quot;nofollow&quot; target=&quot;_NEW&quot;&gt;\nhttp://www.imageurlhost.com/images/dpv6gjbugbn5y1dsnfwv.png&lt;/a&gt; &lt;a href=&quot;\nhttp://www.imageurlhost.com/images/5f8yz5w9amas4rk3znqk.png&quot; rel=&quot;nofollow&quot; target=&quot;_NEW&quot;&gt;\nhttp://www.imageurlhost.com/images/5f8yz5w9amas4rk3znqk.png&lt;/a&gt;\n\n\n\n\n\n\n","torrent":{"xt":"urn:btih:f1b369c62e83860be06670b5a8de48bcf041d112","amp;dn":"The+Legend+of+Hercules+%282014%29+CAM+x264+-+Exclusive","amp;tr":["udp%3A%2F%2Ftracker.openbittorrent.com%3A80","udp%3A%2F%2Fopen.demonii.com%3A1337","udp%3A%2F%2Ftracker.coppersurfer.tk%3A6969","udp%3A%2F%2Fexodus.desync.com%3A6969"],"infoHash":"f1b369c62e83860be06670b5a8de48bcf041d112","infoHashBuffer":{"type":"Buffer","data":[241,179,105,198,46,131,134,11,224,102,112,181,168,222,72,188,240,65,209,18]},"announce":[],"urlList":[]}}